<?xml version="1.0" encoding="UTF-8" standalone="no"?>
<svg
   width="16.925901mm"
   height="8.6449671mm"
   viewBox="4022.7 2910.8 66.637232 34.035208"
   version="1.1"
   id="svg16"
   sodipodi:docname="pepperFill.svg"
   inkscape:version="1.4.2 (ebf0e940, 2025-05-08)"
   xml:space="preserve"
   xmlns:inkscape="http://www.inkscape.org/namespaces/inkscape"
   xmlns:sodipodi="http://sodipodi.sourceforge.net/DTD/sodipodi-0.dtd"
   xmlns="http://www.w3.org/2000/svg"
   xmlns:svg="http://www.w3.org/2000/svg"><defs
     id="defs16" /><sodipodi:namedview
     id="namedview16"
     pagecolor="#ffffff"
     bordercolor="#000000"
     borderopacity="0.25"
     inkscape:showpageshadow="2"
     inkscape:pageopacity="0.0"
     inkscape:pagecheckerboard="0"
     inkscape:deskcolor="#d1d1d1"
     inkscape:document-units="mm"
     inkscape:zoom="6.995259"
     inkscape:cx="33.951566"
     inkscape:cy="26.875345"
     inkscape:window-width="1440"
     inkscape:window-height="847"
     inkscape:window-x="0"
     inkscape:window-y="25"
     inkscape:window-maximized="1"
     inkscape:current-layer="svg16"
     showguides="true"
     inkscape:clip-to-page="false" /><title
     id="title1" /><style
     type="text/css"
     id="style1">
*[layerid=&quot;1&quot;] {stroke:#000000;fill:#000000;}
*[layerid=&quot;2&quot;] {stroke:#000000;fill:#000000;}
*[layerid=&quot;3&quot;] {stroke:#000000;fill:#000000;}
*[layerid=&quot;4&quot;] {stroke:#000000;fill:#000000;}
*[layerid=&quot;5&quot;] {stroke:#000000;fill:#000000;}
*[layerid=&quot;6&quot;] {stroke:#000000;fill:#000000;}
*[layerid=&quot;7&quot;] {stroke:#000000;fill:#000000;}
*[layerid=&quot;8&quot;] {stroke:#000000;fill:#000000;}
*[layerid=&quot;9&quot;] {stroke:#000000;fill:#000000;}
*[layerid=&quot;10&quot;] {stroke:#000000;fill:#000000;}
*[layerid=&quot;11&quot;] {stroke:#000000;fill:#000000;}
*[layerid=&quot;12&quot;] {stroke:#000000;fill:#000000;}
*[layerid=&quot;13&quot;] {stroke:#000000;fill:#000000;}
*[layerid=&quot;14&quot;] {stroke:#000000;fill:#000000;}
*[layerid=&quot;15&quot;] {stroke:#000000;fill:#000000;}
*[layerid=&quot;19&quot;] {stroke:#000000;fill:#000000;}
*[layerid=&quot;21&quot;] {stroke:#000000;fill:#000000;}
*[layerid=&quot;22&quot;] {stroke:#000000;fill:#000000;}
*[layerid=&quot;23&quot;] {stroke:#000000;fill:#000000;}
*[layerid=&quot;24&quot;] {stroke:#000000;fill:#000000;}
*[layerid=&quot;25&quot;] {stroke:#000000;fill:#000000;}
*[layerid=&quot;26&quot;] {stroke:#000000;fill:#000000;}
*[layerid=&quot;27&quot;] {stroke:#000000;fill:#000000;}
*[layerid=&quot;28&quot;] {stroke:#000000;fill:#000000;}
*[layerid=&quot;29&quot;] {stroke:#000000;fill:#000000;}
*[layerid=&quot;30&quot;] {stroke:#000000;fill:#000000;}
*[layerid=&quot;31&quot;] {stroke:#000000;fill:#000000;}
*[layerid=&quot;32&quot;] {stroke:#000000;fill:#000000;}
*[layerid=&quot;33&quot;] {stroke:#000000;fill:#000000;}
*[layerid=&quot;34&quot;] {stroke:#000000;fill:#000000;}
*[layerid=&quot;35&quot;] {stroke:#000000;fill:#000000;}
*[layerid=&quot;36&quot;] {stroke:#000000;fill:#000000;}
*[layerid=&quot;37&quot;] {stroke:#000000;fill:#000000;}
*[layerid=&quot;38&quot;] {stroke:#000000;fill:#000000;}
*[layerid=&quot;39&quot;] {stroke:#000000;fill:#000000;}
*[layerid=&quot;40&quot;] {stroke:#000000;fill:#000000;}
*[layerid=&quot;41&quot;] {stroke:#000000;fill:#000000;}
*[layerid=&quot;42&quot;] {stroke:#000000;fill:#000000;}
*[layerid=&quot;43&quot;] {stroke:#000000;fill:#000000;}
*[layerid=&quot;44&quot;] {stroke:#000000;fill:#000000;}
*[layerid=&quot;45&quot;] {stroke:#000000;fill:#000000;}
*[layerid=&quot;46&quot;] {stroke:#000000;fill:#000000;}
*[layerid=&quot;47&quot;] {stroke:#000000;fill:#000000;}
*[layerid=&quot;48&quot;] {stroke:#000000;fill:#000000;}
*[layerid=&quot;49&quot;] {stroke:#000000;fill:#000000;}
*[layerid=&quot;50&quot;] {stroke:#000000;fill:#000000;}
*[layerid=&quot;51&quot;] {stroke:#000000;fill:#000000;}
*[layerid=&quot;52&quot;] {stroke:#000000;fill:#000000;}
*[layerid=&quot;99&quot;] {stroke:#000000;fill:#000000;}
*[layerid=&quot;100&quot;] {stroke:#000000;fill:#000000;}
*[layerid=&quot;101&quot;] {stroke:#000000;fill:#000000;}
*[layerid=&quot;Hole&quot;] {stroke:#000000;fill:#000000;}
*[layerid=&quot;DRCError&quot;] {stroke:#000000;fill:#000000;}
*[fill=&quot;none&quot;] {fill: none;}
*[stroke=&quot;none&quot;] {stroke: none;}
path, polyline, polygon, line {stroke-linecap:round;}
g[c_partid=&quot;part_pad&quot;][layerid=&quot;1&quot;] ellipse:not([c_etype=&quot;pad_outer&quot;]) {fill:#000000;}
g[c_partid=&quot;part_pad&quot;][layerid=&quot;1&quot;] polygon:not([c_etype=&quot;pad_outer&quot;]) {fill:#000000;}
g[c_partid=&quot;part_pad&quot;][layerid=&quot;1&quot;] polyline:not([c_etype=&quot;pad_outer&quot;]) {stroke:#000000;}
g[c_partid=&quot;part_pad&quot;][layerid=&quot;2&quot;] ellipse:not([c_etype=&quot;pad_outer&quot;]) {fill:#000000;}
g[c_partid=&quot;part_pad&quot;][layerid=&quot;2&quot;] polygon:not([c_etype=&quot;pad_outer&quot;]) {fill:#000000;}
g[c_partid=&quot;part_pad&quot;][layerid=&quot;2&quot;] polyline:not([c_etype=&quot;pad_outer&quot;]) {stroke:#000000;}
g[c_partid=&quot;part_pad&quot;][layerid=&quot;11&quot;] ellipse:not([c_etype=&quot;pad_outer&quot;]) {fill:#000000;}
g[c_partid=&quot;part_pad&quot;][layerid=&quot;11&quot;] polygon:not([c_etype=&quot;pad_outer&quot;]) {fill:#000000;}
g[c_partid=&quot;part_pad&quot;][layerid=&quot;11&quot;] polyline:not([c_etype=&quot;pad_outer&quot;]) {stroke:#000000;}
g[c_partid=&quot;part_pad&quot;][layerid=&quot;11&quot;] circle {fill:#FFFFFF;}
g[c_partid=&quot;part_pad&quot;][layerid=&quot;11&quot;] &gt; polyline:nth-of-type(2) {stroke:#FFFFFF;}
g[c_partid=&quot;part_pad&quot;][layerid=&quot;11&quot;][c_shape=&quot;ELLIPSE&quot;]  polyline:nth-last-of-type(1) {stroke:#FFFFFF;}
g[c_partid=&quot;part_pad&quot;][layerid=&quot;11&quot;][c_shape=&quot;RECT&quot;]  polyline:nth-last-of-type(1) {stroke:#FFFFFF;}
g[c_partid=&quot;part_pad&quot;][layerid=&quot;11&quot;][c_shape=&quot;POLYGON&quot;]  polyline:nth-last-of-type(1) {stroke:#FFFFFF;}
g[c_partid=&quot;part_via&quot;] &gt; * + circle, #gCurParts g[c_partid=&quot;part_via&quot;] &gt; * + circle {fill:#FFFFFF;}
g[c_partid=&quot;part_pad&quot;] &gt; polygon[c_etype=&quot;pad_outer&quot;], #gCurParts g[c_partid=&quot;part_pad&quot;] &gt; polygon[c_etype=&quot;pad_outer&quot;] {stroke-linejoin: round;stroke-miterlimit: 100;}
g[c_partid=&quot;part_hole&quot;] &gt; circle {fill: #FFFFFF;}path, polyline, polygon {stroke-linejoin:round;}
rect, circle, ellipse, polyline, line, polygon, path {shape-rendering:crispEdges;}
</style><path
     style="fill:none;fill-opacity:1;stroke:none;stroke-width:0.922685"
     d="m 4075.1813,2932.655 c -0.9839,1.5368 -5.4557,3.9801 -8.7855,4.8004 -2.6762,0.6595 -1.0669,-0.5479 2.0353,-1.5267 4.0623,-1.2819 5.8435,-2.3492 6.5347,-3.9156 0.3481,-0.7889 0.7607,-1.3135 0.917,-1.1657 0.1561,0.1477 -0.1595,0.9611 -0.7015,1.8076"
     id="path19" /><path
     style="fill:none;fill-opacity:1;stroke:none;stroke-width:0.922685"
     d="m 4079.9556,2923.932 c -1.8862,1.8868 -3.4236,3.7397 -3.4165,4.1177 0.023,1.2117 -5.2819,6.1803 -6.2364,5.841 -0.4871,-0.1733 -1.2373,-0.018 -1.6666,0.3461 -0.4293,0.3637 -1.6462,0.8946 -2.7042,1.1799 -1.058,0.2854 -2.9772,0.9358 -4.2651,1.4455 l -2.3415,0.9266 2.6544,0.026 c 2.5486,0.024 2.5844,0.047 0.8957,0.5967 -0.9671,0.3146 -2.2658,0.4607 -2.8861,0.3251 -0.6203,-0.1357 -2.3993,0.066 -3.9533,0.4499 -2.3099,0.5695 -3.257,0.5396 -5.1901,-0.1648 -1.3073,-0.4763 -2.4421,-0.618 -2.538,-0.3173 -0.1073,0.3371 -1.0721,0.3553 -2.5349,0.048 l -2.3616,-0.4962 2.0614,-0.143 c 1.7469,-0.1209 1.498,-0.2521 -1.6326,-0.8587 -2.0316,-0.3937 -3.9417,-0.8598 -4.2446,-1.036 -0.303,-0.1761 -0.6452,-0.024 -0.7604,0.3376 -0.3651,1.146 -6.0966,-2.0381 -8.6968,-4.8312 -1.3411,-1.4409 -2.8621,-3.7702 -3.3798,-5.1761 -1.0621,-2.8847 -0.8283,-3.2053 0.8594,-1.1778 1.6598,1.9941 6.4789,3.9283 13.2541,5.3198 5.4637,1.122 6.3398,1.1523 12.3195,0.4243 5.6463,-0.6874 6.9126,-1.0549 10.3021,-2.9896 7.1077,-4.0567 6.9594,-4.0022 8.8785,-3.2633 2.7172,1.0462 2.6323,2.6808 5.2931,-0.033"
     id="path18"
     sodipodi:nodetypes="ccccccccccccccccccscccccccc" /><path
     style="fill:none;fill-opacity:1;stroke:none;stroke-width:0.922685"
     d="m 4076.6291,2923.4016 c -0.7433,0.1982 -2.3535,-0.01 -3.5782,-0.4587 -2.7357,-1.0062 -3.6593,-0.69 -9.5852,3.2807 -4.3931,2.9435 -4.4812,2.9729 -10.2561,3.4092 -4.945,0.3735 -6.8298,0.234 -12.4757,-0.9231 -7.5402,-1.5452 -9.5305,-2.363 -12.4343,-5.1093 -3.4946,-3.3051 -5.0926,-2.169 -3.6595,2.6019 2.338,7.7842 7.8249,11.8679 19.6319,14.6115 7.5453,1.7534 13.7905,1.633 21.3554,-0.412 9.6262,-2.6018 13.3997,-5.4402 13.3136,-10.0145 -0.038,-1.999 -1.2822,-3.8344 0.9584,-6.2775"
     id="path17"
     sodipodi:nodetypes="ccccccccccc" /></svg>
