<svg xmlns="http://www.w3.org/2000/svg" width="700" height="700" viewBox="0 0 700 700">
<defs>
  <radialGradient id="cream" cx="50%" cy="40%" r="65%">
    <stop offset="0%" stop-color="#fbf7ef"/>
    <stop offset="55%" stop-color="#efe6d7"/>
    <stop offset="100%" stop-color="#dfd3c0"/>
  </radialGradient>
  <filter id="ds2" x="-50%" y="-50%" width="200%" height="200%">
    <feGaussianBlur in="SourceAlpha" stdDeviation="6" result="b"/>
    <feOffset in="b" dx="0" dy="6" result="o"/>
    <feMerge><feMergeNode in="o"/><feMergeNode in="SourceGraphic"/></feMerge>
  </filter>
</defs>
<rect width="100%" height="100%" fill="#ffffff"/>
<text x="350.0" y="56" font-family="Inter,Arial,Helvetica,sans-serif" font-size="30" font-weight="700" text-anchor="middle">ATTENUVERTER — bipolar scaling</text>

<path d="M 215.0,583.8 A 270.0,270.0 0 0 1 350.0,80.0 L 350.0,140.0 A 210.0,210.0 0 0 0 245.0,531.9 Z" fill="#c6ddff" stroke="#2d2d2d" stroke-width="1"/>
<path d="M 350.0,80.0 A 270.0,270.0 0 0 1 485.0,583.8 L 455.0,531.9 A 210.0,210.0 0 0 0 350.0,140.0 Z" fill="#ffc7c7" stroke="#2d2d2d" stroke-width="1"/>
<text x="192.0" y="623.7" font-family="Inter,Arial,Helvetica,sans-serif" font-size="16" font-weight="600" text-anchor="middle">−100%  invert</text>
<text x="350.0" y="34.0" font-family="Inter,Arial,Helvetica,sans-serif" font-size="16" font-weight="600" text-anchor="middle">0 (center detent)</text>
<text x="508.0" y="623.7" font-family="Inter,Arial,Helvetica,sans-serif" font-size="16" font-weight="600" text-anchor="middle">+100%  attenuate</text>
<line x1="350.0" y1="154.0" x2="350.0" y2="52.0" stroke="#111" stroke-width="5" stroke-linecap="round"/>
<line x1="107.9" y1="450.3" x2="128.3" y2="441.8" stroke="#555" stroke-width="2" stroke-linecap="round"/>
<line x1="96.9" y1="282.2" x2="118.2" y2="287.9" stroke="#555" stroke-width="2" stroke-linecap="round"/>
<line x1="190.5" y1="142.1" x2="203.9" y2="159.6" stroke="#555" stroke-width="2" stroke-linecap="round"/>
<line x1="509.5" y1="142.1" x2="496.1" y2="159.6" stroke="#555" stroke-width="2" stroke-linecap="round"/>
<line x1="603.1" y1="282.2" x2="581.8" y2="287.9" stroke="#555" stroke-width="2" stroke-linecap="round"/>
<line x1="592.1" y1="450.3" x2="571.7" y2="441.8" stroke="#555" stroke-width="2" stroke-linecap="round"/>
<ellipse cx="350.0" cy="373.4" rx="119.6" ry="93.6" fill="#00000022" filter="url(#ds2)"/>
<path d="M 467.0,350.0 L 467.1,352.0 L 467.3,354.1 L 467.7,356.2 L 468.2,358.3 L 468.9,360.4 L 469.6,362.6 L 470.4,364.8 L 471.2,367.0 L 472.0,369.3 L 472.7,371.6 L 473.4,374.0 L 474.0,376.4 L 474.4,378.7 L 474.7,381.1 L 474.7,383.4 L 474.6,385.7 L 474.2,388.0 L 473.6,390.2 L 472.8,392.3 L 471.8,394.3 L 470.6,396.3 L 469.1,398.1 L 467.5,399.9 L 465.8,401.6 L 463.9,403.1 L 462.0,404.6 L 460.0,406.1 L 458.0,407.4 L 456.1,408.8 L 454.1,410.1 L 452.3,411.5 L 450.5,412.8 L 448.9,414.2 L 447.3,415.6 L 445.9,417.2 L 444.7,418.8 L 443.5,420.5 L 442.5,422.3 L 441.6,424.2 L 440.8,426.2 L 440.1,428.3 L 439.4,430.5 L 438.7,432.7 L 438.0,435.0 L 437.3,437.3 L 436.6,439.7 L 435.7,441.9 L 434.8,444.2 L 433.8,446.4 L 432.6,448.4 L 431.3,450.4 L 429.8,452.1 L 428.2,453.7 L 426.4,455.2 L 424.5,456.4 L 422.5,457.4 L 420.3,458.3 L 418.1,459.0 L 415.8,459.4 L 413.4,459.8 L 411.0,460.0 L 408.5,460.0 L 406.1,460.0 L 403.6,460.0 L 401.3,459.9 L 398.9,459.9 L 396.6,459.8 L 394.4,459.9 L 392.2,460.0 L 390.2,460.3 L 388.1,460.7 L 386.2,461.3 L 384.2,462.0 L 382.4,462.8 L 380.5,463.9 L 378.7,465.0 L 376.8,466.3 L 375.0,467.6 L 373.1,469.0 L 371.2,470.5 L 369.3,472.0 L 367.3,473.4 L 365.3,474.8 L 363.2,476.1 L 361.1,477.2 L 359.0,478.2 L 356.8,479.0 L 354.5,479.5 L 352.3,479.9 L 350.0,480.0 L 347.7,479.9 L 345.5,479.5 L 343.2,479.0 L 341.0,478.2 L 338.9,477.2 L 336.8,476.1 L 334.7,474.8 L 332.7,473.4 L 330.7,472.0 L 328.8,470.5 L 326.9,469.0 L 325.0,467.6 L 323.2,466.3 L 321.3,465.0 L 319.5,463.9 L 317.6,462.8 L 315.8,462.0 L 313.8,461.3 L 311.9,460.7 L 309.8,460.3 L 307.8,460.0 L 305.6,459.9 L 303.4,459.8 L 301.1,459.9 L 298.7,459.9 L 296.4,460.0 L 293.9,460.0 L 291.5,460.0 L 289.0,460.0 L 286.6,459.8 L 284.2,459.4 L 281.9,459.0 L 279.7,458.3 L 277.5,457.4 L 275.5,456.4 L 273.6,455.2 L 271.8,453.7 L 270.2,452.1 L 268.7,450.4 L 267.4,448.4 L 266.2,446.4 L 265.2,444.2 L 264.3,441.9 L 263.4,439.7 L 262.7,437.3 L 262.0,435.0 L 261.3,432.7 L 260.6,430.5 L 259.9,428.3 L 259.2,426.2 L 258.4,424.2 L 257.5,422.3 L 256.5,420.5 L 255.3,418.8 L 254.1,417.2 L 252.7,415.6 L 251.1,414.2 L 249.5,412.8 L 247.7,411.5 L 245.9,410.1 L 243.9,408.8 L 242.0,407.4 L 240.0,406.1 L 238.0,404.6 L 236.1,403.1 L 234.2,401.6 L 232.5,399.9 L 230.9,398.1 L 229.4,396.3 L 228.2,394.3 L 227.2,392.3 L 226.4,390.2 L 225.8,388.0 L 225.4,385.7 L 225.3,383.4 L 225.3,381.1 L 225.6,378.7 L 226.0,376.4 L 226.6,374.0 L 227.3,371.6 L 228.0,369.3 L 228.8,367.0 L 229.6,364.8 L 230.4,362.6 L 231.1,360.4 L 231.8,358.3 L 232.3,356.2 L 232.7,354.1 L 232.9,352.0 L 233.0,350.0 L 232.9,348.0 L 232.7,345.9 L 232.3,343.8 L 231.8,341.7 L 231.1,339.6 L 230.4,337.4 L 229.6,335.2 L 228.8,333.0 L 228.0,330.7 L 227.3,328.4 L 226.6,326.0 L 226.0,323.6 L 225.6,321.3 L 225.3,318.9 L 225.3,316.6 L 225.4,314.3 L 225.8,312.0 L 226.4,309.8 L 227.2,307.7 L 228.2,305.7 L 229.4,303.7 L 230.9,301.9 L 232.5,300.1 L 234.2,298.4 L 236.1,296.9 L 238.0,295.4 L 240.0,293.9 L 242.0,292.6 L 243.9,291.2 L 245.9,289.9 L 247.7,288.5 L 249.5,287.2 L 251.1,285.8 L 252.7,284.4 L 254.1,282.8 L 255.3,281.2 L 256.5,279.5 L 257.5,277.7 L 258.4,275.8 L 259.2,273.8 L 259.9,271.7 L 260.6,269.5 L 261.3,267.3 L 262.0,265.0 L 262.7,262.7 L 263.4,260.3 L 264.3,258.1 L 265.2,255.8 L 266.2,253.6 L 267.4,251.6 L 268.7,249.6 L 270.2,247.9 L 271.8,246.3 L 273.6,244.8 L 275.5,243.6 L 277.5,242.6 L 279.7,241.7 L 281.9,241.0 L 284.2,240.6 L 286.6,240.2 L 289.0,240.0 L 291.5,240.0 L 293.9,240.0 L 296.4,240.0 L 298.7,240.1 L 301.1,240.1 L 303.4,240.2 L 305.6,240.1 L 307.8,240.0 L 309.8,239.7 L 311.9,239.3 L 313.8,238.7 L 315.8,238.0 L 317.6,237.2 L 319.5,236.1 L 321.3,235.0 L 323.2,233.7 L 325.0,232.4 L 326.9,231.0 L 328.8,229.5 L 330.7,228.0 L 332.7,226.6 L 334.7,225.2 L 336.8,223.9 L 338.9,222.8 L 341.0,221.8 L 343.2,221.0 L 345.5,220.5 L 347.7,220.1 L 350.0,220.0 L 352.3,220.1 L 354.5,220.5 L 356.8,221.0 L 359.0,221.8 L 361.1,222.8 L 363.2,223.9 L 365.3,225.2 L 367.3,226.6 L 369.3,228.0 L 371.2,229.5 L 373.1,231.0 L 375.0,232.4 L 376.8,233.7 L 378.7,235.0 L 380.5,236.1 L 382.4,237.2 L 384.2,238.0 L 386.2,238.7 L 388.1,239.3 L 390.2,239.7 L 392.2,240.0 L 394.4,240.1 L 396.6,240.2 L 398.9,240.1 L 401.3,240.1 L 403.6,240.0 L 406.1,240.0 L 408.5,240.0 L 411.0,240.0 L 413.4,240.2 L 415.8,240.6 L 418.1,241.0 L 420.3,241.7 L 422.5,242.6 L 424.5,243.6 L 426.4,244.8 L 428.2,246.3 L 429.8,247.9 L 431.3,249.6 L 432.6,251.6 L 433.8,253.6 L 434.8,255.8 L 435.7,258.1 L 436.6,260.3 L 437.3,262.7 L 438.0,265.0 L 438.7,267.3 L 439.4,269.5 L 440.1,271.7 L 440.8,273.8 L 441.6,275.8 L 442.5,277.7 L 443.5,279.5 L 444.7,281.2 L 445.9,282.8 L 447.3,284.4 L 448.9,285.8 L 450.5,287.2 L 452.3,288.5 L 454.1,289.9 L 456.1,291.2 L 458.0,292.6 L 460.0,293.9 L 462.0,295.4 L 463.9,296.9 L 465.8,298.4 L 467.5,300.1 L 469.1,301.9 L 470.6,303.7 L 471.8,305.7 L 472.8,307.7 L 473.6,309.8 L 474.2,312.0 L 474.6,314.3 L 474.7,316.6 L 474.7,318.9 L 474.4,321.3 L 474.0,323.6 L 473.4,326.0 L 472.7,328.4 L 472.0,330.7 L 471.2,333.0 L 470.4,335.2 L 469.6,337.4 L 468.9,339.6 L 468.2,341.7 L 467.7,343.8 L 467.3,345.9 L 467.1,348.0 Z" fill="url(#cream)" stroke="#877e73" stroke-width="2" filter="url(#ds2)"/>
<circle cx="350.0" cy="350.0" r="119.6" fill="url(#cream)" stroke="#b2a690" stroke-width="3"/>
<circle cx="350.0" cy="342.2" r="71.5" fill="#f7efe2" opacity="0.9"/>
<line x1="350.0" y1="330.5" x2="350.0" y2="259.0" stroke="#111" stroke-width="14.3" stroke-linecap="round"/>
</svg>