<svg xmlns="http://www.w3.org/2000/svg" width="700" height="700" viewBox="0 0 700 700">
<defs>
<filter id="ds" x="-50%" y="-50%" width="200%" height="200%"><feGaussianBlur in="SourceAlpha" stdDeviation="6" result="b"/><feOffset in="b" dx="0" dy="6" result="o"/><feMerge><feMergeNode in="o"/><feMergeNode in="SourceGraphic"/></feMerge></filter>
<radialGradient id="cream" cx="50%" cy="40%" r="65%"><stop offset="0%" stop-color="#fbf7ef"/><stop offset="55%" stop-color="#efe6d7"/><stop offset="100%" stop-color="#dfd3c0"/></radialGradient>
<linearGradient id="rim" x1="0%" y1="0%" x2="0%" y2="100%"><stop offset="0%" stop-color="#ffffff" stop-opacity="0.8"/><stop offset="100%" stop-color="#a89f90" stop-opacity="0.9"/></linearGradient>
</defs>
<rect width="100%" height="100%" fill="#ffffff"/>
<text x="350.0" y="56" font-family="Inter,Arial,Helvetica,sans-serif" font-size="30" font-weight="700" text-anchor="middle">SPREAD — Unison + Sub/Granular ranges</text>
<path d="M 210.00,592.49 A 280.00,280.00 0 0 1 91.31,457.15 L 146.75,434.19 A 220.00,220.00 0 0 0 240.00,540.53 Z" fill="#d9f0a3" stroke="#2d2d2d" stroke-width="1"/>
<text x="162.04" y="514.84" font-family="Inter,Arial,Helvetica,sans-serif" font-size="18" font-weight="700" text-anchor="middle" fill="#161616">1 voice</text>
<path d="M 91.31,457.15 A 280.00,280.00 0 0 1 179.55,127.86 L 216.07,175.46 A 220.00,220.00 0 0 0 146.75,434.19 Z" fill="#addd8e" stroke="#2d2d2d" stroke-width="1"/>
<text x="108.52" y="285.30" font-family="Inter,Arial,Helvetica,sans-serif" font-size="18" font-weight="700" text-anchor="middle" fill="#161616">3 voices</text>
<path d="M 179.55,127.86 A 280.00,280.00 0 0 1 520.45,127.86 L 483.93,175.46 A 220.00,220.00 0 0 0 216.07,175.46 Z" fill="#78c679" stroke="#2d2d2d" stroke-width="1"/>
<text x="350.00" y="100.00" font-family="Inter,Arial,Helvetica,sans-serif" font-size="18" font-weight="700" text-anchor="middle" fill="#161616">5 voices</text>
<path d="M 520.45,127.86 A 280.00,280.00 0 0 1 490.00,592.49 L 460.00,540.53 A 220.00,220.00 0 0 0 483.93,175.46 Z" fill="#41ab5d" stroke="#2d2d2d" stroke-width="1"/>
<text x="599.46" y="366.35" font-family="Inter,Arial,Helvetica,sans-serif" font-size="18" font-weight="700" text-anchor="middle" fill="#161616">7 voices</text>
<path d="M 197.00,615.00 A 306.00,306.00 0 0 1 197.00,85.00 L 210.00,107.51 A 280.00,280.00 0 0 0 210.00,592.49 Z" fill="#dadaeb" fill-opacity="0.92" stroke="#2d2d2d" stroke-width="1"/>
<text x="58.00" y="350.00" font-family="Inter,Arial,Helvetica,sans-serif" font-size="16" font-weight="500" text-anchor="middle" fill="#161616">Sub blend</text>
<path d="M 615.00,503.00 A 306.00,306.00 0 0 1 503.00,615.00 L 490.00,592.49 A 280.00,280.00 0 0 0 592.49,490.00 Z" fill="#bcbddc" fill-opacity="0.92" stroke="#2d2d2d" stroke-width="1"/>
<text x="556.48" y="556.48" font-family="Inter,Arial,Helvetica,sans-serif" font-size="16" font-weight="500" text-anchor="middle" fill="#161616">Granular shimmer</text>
<line x1="184.00" y1="637.52" x2="225.00" y2="566.51" stroke="#545454" stroke-width="3" stroke-linecap="round"/>
<line x1="43.27" y1="477.05" x2="119.03" y2="445.67" stroke="#545454" stroke-width="3" stroke-linecap="round"/>
<line x1="147.89" y1="86.61" x2="197.81" y2="151.66" stroke="#545454" stroke-width="3" stroke-linecap="round"/>
<line x1="552.11" y1="86.61" x2="502.19" y2="151.66" stroke="#545454" stroke-width="3" stroke-linecap="round"/>
<line x1="516.00" y1="637.52" x2="475.00" y2="566.51" stroke="#545454" stroke-width="3" stroke-linecap="round"/>
<line x1="184.00" y1="62.48" x2="225.00" y2="133.49" stroke="#545454" stroke-width="3" stroke-linecap="round"/>
<line x1="637.52" y1="516.00" x2="566.51" y2="475.00" stroke="#545454" stroke-width="3" stroke-linecap="round"/>
<text x="178.00" y="647.91" font-family="Inter,Arial,Helvetica,sans-serif" font-size="12" font-weight="500" text-anchor="middle" fill="#161616">0%</text>
<text x="178.00" y="52.09" font-family="Inter,Arial,Helvetica,sans-serif" font-size="12" font-weight="500" text-anchor="middle" fill="#161616">40%</text>
<text x="647.91" y="522.00" font-family="Inter,Arial,Helvetica,sans-serif" font-size="12" font-weight="500" text-anchor="middle" fill="#161616">90%</text>
<text x="522.00" y="647.91" font-family="Inter,Arial,Helvetica,sans-serif" font-size="12" font-weight="500" text-anchor="middle" fill="#161616">100%</text>
<ellipse cx="350.0" cy="374.3" rx="126.9" ry="101.2" fill="#00000022" filter="url(#ds)"/>
<path d="M 471.5,350.0 L 471.6,352.1 L 471.8,354.3 L 472.2,356.4 L 472.8,358.6 L 473.4,360.8 L 474.2,363.1 L 475.0,365.3 L 475.8,367.7 L 476.7,370.1 L 477.5,372.5 L 478.2,374.9 L 478.7,377.4 L 479.2,379.8 L 479.5,382.3 L 479.5,384.7 L 479.4,387.1 L 479.0,389.4 L 478.4,391.7 L 477.5,393.9 L 476.5,396.0 L 475.2,398.1 L 473.7,400.0 L 472.0,401.8 L 470.2,403.5 L 468.3,405.2 L 466.3,406.7 L 464.3,408.2 L 462.2,409.7 L 460.2,411.1 L 458.1,412.4 L 456.2,413.8 L 454.4,415.2 L 452.7,416.7 L 451.1,418.2 L 449.6,419.7 L 448.3,421.4 L 447.1,423.2 L 446.1,425.1 L 445.1,427.0 L 444.3,429.1 L 443.5,431.3 L 442.8,433.6 L 442.1,435.9 L 441.4,438.3 L 440.7,440.7 L 439.9,443.1 L 439.0,445.5 L 438.1,447.8 L 437.0,450.1 L 435.8,452.2 L 434.4,454.2 L 432.9,456.1 L 431.2,457.7 L 429.4,459.2 L 427.4,460.5 L 425.3,461.6 L 423.0,462.5 L 420.7,463.1 L 418.3,463.7 L 415.8,464.0 L 413.3,464.2 L 410.8,464.3 L 408.2,464.3 L 405.7,464.2 L 403.2,464.1 L 400.8,464.1 L 398.4,464.1 L 396.1,464.1 L 393.9,464.3 L 391.7,464.6 L 389.6,465.0 L 387.5,465.6 L 385.6,466.3 L 383.6,467.2 L 381.7,468.2 L 379.8,469.4 L 377.9,470.7 L 376.0,472.1 L 374.0,473.6 L 372.1,475.1 L 370.1,476.7 L 368.0,478.2 L 365.9,479.6 L 363.8,480.9 L 361.6,482.1 L 359.3,483.1 L 357.0,483.9 L 354.7,484.5 L 352.4,484.9 L 350.0,485.0 L 347.6,484.9 L 345.3,484.5 L 343.0,483.9 L 340.7,483.1 L 338.4,482.1 L 336.2,480.9 L 334.1,479.6 L 332.0,478.2 L 329.9,476.7 L 327.9,475.1 L 326.0,473.6 L 324.0,472.1 L 322.1,470.7 L 320.2,469.4 L 318.3,468.2 L 316.4,467.2 L 314.4,466.3 L 312.5,465.6 L 310.4,465.0 L 308.3,464.6 L 306.1,464.3 L 303.9,464.1 L 301.6,464.1 L 299.2,464.1 L 296.8,464.1 L 294.3,464.2 L 291.8,464.3 L 289.2,464.3 L 286.7,464.2 L 284.2,464.0 L 281.7,463.7 L 279.3,463.1 L 277.0,462.5 L 274.7,461.6 L 272.6,460.5 L 270.6,459.2 L 268.8,457.7 L 267.1,456.1 L 265.6,454.2 L 264.2,452.2 L 263.0,450.1 L 261.9,447.8 L 261.0,445.5 L 260.1,443.1 L 259.3,440.7 L 258.6,438.3 L 257.9,435.9 L 257.2,433.6 L 256.5,431.3 L 255.7,429.1 L 254.9,427.0 L 253.9,425.1 L 252.9,423.2 L 251.7,421.4 L 250.4,419.7 L 248.9,418.2 L 247.3,416.7 L 245.6,415.2 L 243.8,413.8 L 241.9,412.4 L 239.8,411.1 L 237.8,409.7 L 235.7,408.2 L 233.7,406.7 L 231.7,405.2 L 229.8,403.5 L 228.0,401.8 L 226.3,400.0 L 224.8,398.1 L 223.5,396.0 L 222.5,393.9 L 221.6,391.7 L 221.0,389.4 L 220.6,387.1 L 220.5,384.7 L 220.5,382.3 L 220.8,379.8 L 221.3,377.4 L 221.8,374.9 L 222.5,372.5 L 223.3,370.1 L 224.2,367.7 L 225.0,365.3 L 225.8,363.1 L 226.6,360.8 L 227.2,358.6 L 227.8,356.4 L 228.2,354.3 L 228.4,352.1 L 228.5,350.0 L 228.4,347.9 L 228.2,345.7 L 227.8,343.6 L 227.2,341.4 L 226.6,339.2 L 225.8,336.9 L 225.0,334.7 L 224.2,332.3 L 223.3,329.9 L 222.5,327.5 L 221.8,325.1 L 221.3,322.6 L 220.8,320.2 L 220.5,317.7 L 220.5,315.3 L 220.6,312.9 L 221.0,310.6 L 221.6,308.3 L 222.5,306.1 L 223.5,304.0 L 224.8,301.9 L 226.3,300.0 L 228.0,298.2 L 229.8,296.5 L 231.7,294.8 L 233.7,293.3 L 235.7,291.8 L 237.8,290.3 L 239.8,288.9 L 241.9,287.6 L 243.8,286.2 L 245.6,284.8 L 247.3,283.3 L 248.9,281.8 L 250.4,280.3 L 251.7,278.6 L 252.9,276.8 L 253.9,274.9 L 254.9,273.0 L 255.7,270.9 L 256.5,268.7 L 257.2,266.4 L 257.9,264.1 L 258.6,261.7 L 259.3,259.3 L 260.1,256.9 L 261.0,254.5 L 261.9,252.2 L 263.0,249.9 L 264.2,247.8 L 265.6,245.8 L 267.1,243.9 L 268.8,242.3 L 270.6,240.8 L 272.6,239.5 L 274.7,238.4 L 277.0,237.5 L 279.3,236.9 L 281.7,236.3 L 284.2,236.0 L 286.7,235.8 L 289.2,235.7 L 291.8,235.7 L 294.3,235.8 L 296.8,235.9 L 299.2,235.9 L 301.6,235.9 L 303.9,235.9 L 306.1,235.7 L 308.3,235.4 L 310.4,235.0 L 312.5,234.4 L 314.4,233.7 L 316.4,232.8 L 318.3,231.8 L 320.2,230.6 L 322.1,229.3 L 324.0,227.9 L 326.0,226.4 L 327.9,224.9 L 329.9,223.3 L 332.0,221.8 L 334.1,220.4 L 336.2,219.1 L 338.4,217.9 L 340.7,216.9 L 343.0,216.1 L 345.3,215.5 L 347.6,215.1 L 350.0,215.0 L 352.4,215.1 L 354.7,215.5 L 357.0,216.1 L 359.3,216.9 L 361.6,217.9 L 363.8,219.1 L 365.9,220.4 L 368.0,221.8 L 370.1,223.3 L 372.1,224.9 L 374.0,226.4 L 376.0,227.9 L 377.9,229.3 L 379.8,230.6 L 381.7,231.8 L 383.6,232.8 L 385.6,233.7 L 387.5,234.4 L 389.6,235.0 L 391.7,235.4 L 393.9,235.7 L 396.1,235.9 L 398.4,235.9 L 400.8,235.9 L 403.2,235.9 L 405.7,235.8 L 408.2,235.7 L 410.8,235.7 L 413.3,235.8 L 415.8,236.0 L 418.3,236.3 L 420.7,236.9 L 423.0,237.5 L 425.3,238.4 L 427.4,239.5 L 429.4,240.8 L 431.2,242.3 L 432.9,243.9 L 434.4,245.8 L 435.8,247.8 L 437.0,249.9 L 438.1,252.2 L 439.0,254.5 L 439.9,256.9 L 440.7,259.3 L 441.4,261.7 L 442.1,264.1 L 442.8,266.4 L 443.5,268.7 L 444.3,270.9 L 445.1,273.0 L 446.1,274.9 L 447.1,276.8 L 448.3,278.6 L 449.6,280.3 L 451.1,281.8 L 452.7,283.3 L 454.4,284.8 L 456.2,286.2 L 458.1,287.6 L 460.2,288.9 L 462.2,290.3 L 464.3,291.8 L 466.3,293.3 L 468.3,294.8 L 470.2,296.5 L 472.0,298.2 L 473.7,300.0 L 475.2,301.9 L 476.5,304.0 L 477.5,306.1 L 478.4,308.3 L 479.0,310.6 L 479.4,312.9 L 479.5,315.3 L 479.5,317.7 L 479.2,320.2 L 478.7,322.6 L 478.2,325.1 L 477.5,327.5 L 476.7,329.9 L 475.8,332.3 L 475.0,334.7 L 474.2,336.9 L 473.4,339.2 L 472.8,341.4 L 472.2,343.6 L 471.8,345.7 L 471.6,347.9 Z" fill="url(#cream)" stroke="#877e73" stroke-width="2" filter="url(#ds)"/>
<circle cx="350.0" cy="350.0" r="124.2" fill="url(#cream)" stroke="url(#rim)" stroke-width="3"/>
<circle cx="350.0" cy="341.9" r="74.2" fill="#f7efe2" opacity="0.9"/>
<line x1="350.0" y1="329.8" x2="350.0" y2="255.5" stroke="#111" stroke-width="14.8" stroke-linecap="round"/>
</svg>